<svg id="e189imQUAO31" xmlns="http://www.w3.org/2000/svg" xmlns:xlink="http://www.w3.org/1999/xlink" viewBox="0 0 1000 1000" shape-rendering="geometricPrecision" text-rendering="geometricPrecision" style="background-color:transparent"><g transform="matrix(1.520503 0 0 1.523163-258.612816-261.581524)"><g transform="translate(491.638794 563.826111)"><path d="M112.1,454.3c0,6.297,1.816,12.44,5.284,17.69l17.14,25.69c5.25,7.875,17.17,14.28,26.64,14.28h61.67c9.438,0,21.36-6.401,26.61-14.28L266.524,472c2.938-4.438,5.348-12.37,5.348-17.7L272,415.1h-160l.1,39.2ZM191.4,0.0132C89.44,0.3257,16,82.97,16,175.1c0,44.38,16.44,84.84,43.56,115.8c16.53,18.84,42.34,58.23,52.22,91.45.0313.25.0938.5166.125.7823h160.2c.0313-.2656.0938-.5166.125-.7823c9.875-33.22,35.69-72.61,52.22-91.45C351.6,260.8,368,220.4,368,175.1C368,78.61,288.9,-0.2837,191.4,0.0132ZM192,96.01c-44.13,0-80,35.89-80,79.1c0,9.69-7.2,16.89-16,16.89s-16-7.2-16-16c0-61.76,50.25-111.1,112-111.1c8.844,0,16,7.159,16,16s-7.2,15.11-16,15.11Z" transform="translate(-192-255.986206)"/></g><g transform="translate(491.638794 373.190704)"><path d="M277.42,168.64c-2.860792-8.008668-9.168006-14.308538-17.18-17.16.039022-.291874.062388-.585628.07-.88.022816-7.832399-.734251-15.647612-2.26-23.33c16.51,1.28,36.67-4.52,55-17.24c23.86-16.53,37.86-40,37.41-59.4-18-7.21-44.89-2.35-68.75,14.19-14.92,10.34-26,23.42-32.08,36.5-5.008184-10.831606-12.484677-20.339048-21.83-27.76-2.400825-1.86314-5.613252-2.303928-8.427191-1.156323s-4.801886,3.709255-5.215,6.72.811366,6.013183,3.212191,7.876323c10.89,8.47,18.56,21.37,22.79,38.35c2.040787,8.157974,3.098301,16.530798,3.15,24.94c0,.21,0,.41,0,.61-8.884492,2.454419-16.017882,9.080412-19.12,17.76-57.885635,12.534601-99.191979,63.742785-99.191979,122.97s41.306344,110.435399,99.191979,122.97c4.005682,11.254141,14.65924,18.770492,26.605,18.770492s22.599318-7.516351,26.605-18.770492c57.885635-12.534601,99.191979-63.742785,99.191979-122.97s-41.306344-110.435399-99.191979-122.97Zm-26.6,218.27c-4.69442,0-8.5-3.80558-8.5-8.5s3.80558-8.5,8.5-8.5c43.223336-.049597,78.250403-35.076664,78.3-78.3c0-4.69442,3.80558-8.5,8.5-8.5s8.5,3.80558,8.5,8.5c-.060617,52.607608-42.692392,95.239383-95.3,95.3Z" transform="translate(-250.794998-240.379898)"/></g><g transform="matrix(.1997-.0238 0.0238 0.1997 597.165283 538.32843)"><path d="M67.5,135c37.279,0,67.5-30.221,67.5-67.5C135,30.2208,104.779,0,67.5,0C30.2208,0,0,30.2208,0,67.5C0,104.779,30.2208,135,67.5,135Z" transform="translate(-67.5-67.5)" fill="#fff"/></g><g transform="matrix(.1997-.0238 0.0238 0.1997 612.148621 571.706177)"><path d="M67.5,135c37.279,0,67.5-30.221,67.5-67.5C135,30.2208,104.779,0,67.5,0C30.2208,0,0,30.2208,0,67.5C0,104.779,30.2208,135,67.5,135Z" transform="translate(-67.5-67.5)" fill="#fff"/></g><g transform="matrix(.1997-.0238 0.0238 0.1997 575.292419 585.017273)"><path d="M67.5,135c37.279,0,67.5-30.221,67.5-67.5C135,30.2208,104.779,0,67.5,0C30.2208,0,0,30.2208,0,67.5C0,104.779,30.2208,135,67.5,135Z" transform="translate(-67.5-67.5)" fill="#fff"/></g><g transform="matrix(-.402-.2717 0.4785-.7081 405.786896 436.153503)"><path d="M10.4789,30.4984C31.9842,39.8072,57.39,63.4537,46.6373,97.265c-10.7526,33.811,10.5419,54.676,28.6738,55.692c22.5596,1.284,45.5409-26.482,39.7959-72.0092-5.535-43.655-37.1604-67.5155-75.3745-78.53629C1.4656,-8.60926,-11.0265,21.1896,10.4789,30.4984Z" transform="translate(-58.000198-76.499802)" fill="#fff"/></g><g transform="translate(491.638794 388.240814)"><g><g transform="translate(13.8203-18.288799)" clip-path="url(#e189imQUAO318)"><clipPath id="e189imQUAO318"><rect width="51" height="57" rx="0" ry="0" transform="translate(-39.3203-10.211201)"/></clipPath><path d="M29.7701,2.31171c.3873-.54545.1838-1.0974.2691-1.603894.0525-.298702.2298-.792208.4004-.694806c1.2079.701299,2.8294-.428571,3.86.889611C38.4747,6.25976,44.1005,10.1883,48.6563,15.1883c.3216.3507.6564.6494.9912,1.026c1.8709,1.9675,1.8709,1.9675-.4135,3.2662-2.2845,1.2987-2.593,1.3442-4.8315-.435-4.6609-3.6883-9.2955-7.4026-13.7331-11.35067-1.3851-1.22727-2.6258-2.5974-2.9475-4.54546-.0939-.52085-.1094-1.05258-.0459-1.57792.0591-.44805.21-1.019479.768-1.064933s.4858.551953.6105.915583c.0237.19951.1032.38851.2296.5457s.2947.2763.486.34391Z" transform="translate(-39.320301-10.2112)"/></g><g transform="translate(-6.3421 1.7143)" clip-path="url(#e189imQUAO322)"><clipPath id="e189imQUAO322"><rect width="51" height="57" rx="0" ry="0" transform="translate(-19.1579-30.2143)"/></clipPath><path d="M11.6913,23.5649c2.337.1494,4.3261,1.2078,6.2757,2.3702c4.2276,2.5324,8.0219,5.7078,12.3414,8.1169.8337.461.8271.8896.0591,1.5974-2.2188,2.0584-4.3786,1.1233-6.4727-.0455-4.1947-2.3506-8.3238-4.8182-12.4726-7.2143-1.0832-.6493-2.2057-1.1753-3.31511-1.7402-.26624-.1365-.47908-.3566-.60504-.6258s-.1579-.5722-.0908-.8613c.05251-.6493.45295-.7987,1.05689-.9545c1.03832-.3637,2.12346-.5802,3.22316-.6429Z" transform="translate(-19.1579-30.2143)"/></g><g transform="translate(-15.3458 26.250999)" clip-path="url(#e189imQUAO326)"><clipPath id="e189imQUAO326"><rect width="51" height="57" rx="0" ry="0" transform="translate(-10.1542-54.751101)"/></clipPath><path d="M9.19033,56.9611c-2.44201,0-4.88402,0-7.3326,0-.77462,0-1.595188,0-1.838076-1.0065s.636762-.9935,1.096276-1.4091c.8898-.7109,1.96323-1.1608,3.09847-1.2987c4.91029-.7467,9.8468-1.0714,14.7571-.1104.5317.1039,1.0963.0909,1.3129.6494.2167.5584-.3873.8506-.6564,1.2597-1.3129,1.9156-3.2364,1.9156-5.2517,1.8507-1.7265-.052-3.4595,0-5.18597,0v.0649Z" transform="translate(-10.1542-54.751099)"/></g></g></g><g transform="matrix(3.0248 0 0 4.0498 257.317993 361.519592)"><g><g transform="translate(13.8203-18.288799)" clip-path="url(#e189imQUAO332)"><clipPath id="e189imQUAO332"><rect width="51" height="57" rx="0" ry="0" transform="translate(-39.3203-10.211201)"/></clipPath><path d="M29.7701,2.31171c.3873-.54545.1838-1.0974.2691-1.603894.0525-.298702.2298-.792208.4004-.694806c1.2079.701299,2.8294-.428571,3.86.889611C38.4747,6.25976,44.1005,10.1883,48.6563,15.1883c.3216.3507.6564.6494.9912,1.026c1.8709,1.9675,1.8709,1.9675-.4135,3.2662-2.2845,1.2987-2.593,1.3442-4.8315-.435-4.6609-3.6883-9.2955-7.4026-13.7331-11.35067-1.3851-1.22727-2.6258-2.5974-2.9475-4.54546-.0939-.52085-.1094-1.05258-.0459-1.57792.0591-.44805.21-1.019479.768-1.064933s.4858.551953.6105.915583c.0237.19951.1032.38851.2296.5457s.2947.2763.486.34391Z" transform="translate(-39.320301-10.2112)"/></g><g transform="translate(-6.3421 1.7143)" clip-path="url(#e189imQUAO336)"><clipPath id="e189imQUAO336"><rect width="51" height="57" rx="0" ry="0" transform="translate(-19.1579-30.2143)"/></clipPath><path d="M11.6913,23.5649c2.337.1494,4.3261,1.2078,6.2757,2.3702c4.2276,2.5324,8.0219,5.7078,12.3414,8.1169.8337.461.8271.8896.0591,1.5974-2.2188,2.0584-4.3786,1.1233-6.4727-.0455-4.1947-2.3506-8.3238-4.8182-12.4726-7.2143-1.0832-.6493-2.2057-1.1753-3.31511-1.7402-.26624-.1365-.47908-.3566-.60504-.6258s-.1579-.5722-.0908-.8613c.05251-.6493.45295-.7987,1.05689-.9545c1.03832-.3637,2.12346-.5802,3.22316-.6429Z" transform="translate(-19.1579-30.2143)"/></g><g transform="translate(-15.3458 26.250999)" clip-path="url(#e189imQUAO340)"><clipPath id="e189imQUAO340"><rect width="51" height="57" rx="0" ry="0" transform="translate(-10.1542-54.751101)"/></clipPath><path d="M9.19033,56.9611c-2.44201,0-4.88402,0-7.3326,0-.77462,0-1.595188,0-1.838076-1.0065s.636762-.9935,1.096276-1.4091c.8898-.7109,1.96323-1.1608,3.09847-1.2987c4.91029-.7467,9.8468-1.0714,14.7571-.1104.5317.1039,1.0963.0909,1.3129.6494.2167.5584-.3873.8506-.6564,1.2597-1.3129,1.9156-3.2364,1.9156-5.2517,1.8507-1.7265-.052-3.4595,0-5.18597,0v.0649Z" transform="translate(-10.1542-54.751099)"/></g></g></g><g transform="matrix(-2.0392 2.2341-2.9912-2.7302 735.511902 373.190704)"><g><g transform="translate(13.8203-18.288799)" clip-path="url(#e189imQUAO346)"><clipPath id="e189imQUAO346"><rect width="51" height="57" rx="0" ry="0" transform="translate(-39.3203-10.211201)"/></clipPath><path d="M29.7701,2.31171c.3873-.54545.1838-1.0974.2691-1.603894.0525-.298702.2298-.792208.4004-.694806c1.2079.701299,2.8294-.428571,3.86.889611C38.4747,6.25976,44.1005,10.1883,48.6563,15.1883c.3216.3507.6564.6494.9912,1.026c1.8709,1.9675,1.8709,1.9675-.4135,3.2662-2.2845,1.2987-2.593,1.3442-4.8315-.435-4.6609-3.6883-9.2955-7.4026-13.7331-11.35067-1.3851-1.22727-2.6258-2.5974-2.9475-4.54546-.0939-.52085-.1094-1.05258-.0459-1.57792.0591-.44805.21-1.019479.768-1.064933s.4858.551953.6105.915583c.0237.19951.1032.38851.2296.5457s.2947.2763.486.34391Z" transform="translate(-39.320301-10.2112)"/></g><g transform="translate(-6.3421 1.7143)" clip-path="url(#e189imQUAO350)"><clipPath id="e189imQUAO350"><rect width="51" height="57" rx="0" ry="0" transform="translate(-19.1579-30.2143)"/></clipPath><path d="M11.6913,23.5649c2.337.1494,4.3261,1.2078,6.2757,2.3702c4.2276,2.5324,8.0219,5.7078,12.3414,8.1169.8337.461.8271.8896.0591,1.5974-2.2188,2.0584-4.3786,1.1233-6.4727-.0455-4.1947-2.3506-8.3238-4.8182-12.4726-7.2143-1.0832-.6493-2.2057-1.1753-3.31511-1.7402-.26624-.1365-.47908-.3566-.60504-.6258s-.1579-.5722-.0908-.8613c.05251-.6493.45295-.7987,1.05689-.9545c1.03832-.3637,2.12346-.5802,3.22316-.6429Z" transform="translate(-19.1579-30.2143)"/></g><g transform="translate(-15.3458 26.250999)" clip-path="url(#e189imQUAO354)"><clipPath id="e189imQUAO354"><rect width="51" height="57" rx="0" ry="0" transform="translate(-10.1542-54.751101)"/></clipPath><path d="M9.19033,56.9611c-2.44201,0-4.88402,0-7.3326,0-.77462,0-1.595188,0-1.838076-1.0065s.636762-.9935,1.096276-1.4091c.8898-.7109,1.96323-1.1608,3.09847-1.2987c4.91029-.7467,9.8468-1.0714,14.7571-.1104.5317.1039,1.0963.0909,1.3129.6494.2167.5584-.3873.8506-.6564,1.2597-1.3129,1.9156-3.2364,1.9156-5.2517,1.8507-1.7265-.052-3.4595,0-5.18597,0v.0649Z" transform="translate(-10.1542-54.751099)"/></g></g></g></g></svg>
